<?xml version="1.0" standalone="no"?>
<!DOCTYPE svg PUBLIC "-//W3C//DTD SVG 20010904//EN"
 "http://www.w3.org/TR/2001/REC-SVG-20010904/DTD/svg10.dtd">
<svg version="1.0" xmlns="http://www.w3.org/2000/svg"
 width="1280.000000pt" height="1280.000000pt" viewBox="0 0 1280.000000 1280.000000"
 preserveAspectRatio="xMidYMid meet">
<g transform="translate(0.000000,1280.000000) scale(0.100000,-0.100000)"
fill="#E60005" stroke="none">
<path d="M1564 8889 c-62 -14 -144 -69 -185 -123 -46 -60 -69 -131 -69 -208 0
-45 182 -1123 226 -1340 l6 -28 -636 0 c-625 0 -636 0 -693 -21 -69 -27 -145
-94 -181 -164 -24 -45 -27 -60 -26 -155 l0 -105 138 -440 c162 -520 170 -536
301 -602 49 -25 1530 -651 1740 -735 843 -340 1728 -533 2650 -578 115 -5 685
-10 1266 -10 l1057 0 4 -112 c3 -97 7 -121 30 -170 32 -69 92 -129 166 -165
l57 -28 665 -3 c581 -3 678 -1 765 14 265 43 502 198 640 417 l30 47 1241 0
c1364 0 1334 -1 1494 61 267 103 474 350 535 640 29 138 17 344 -30 484 -28
87 -171 366 -243 475 -365 559 -958 967 -1592 1095 -256 52 7 48 -3615 52
l-3360 4 -500 777 c-275 427 -517 796 -539 819 -21 24 -54 52 -72 64 -76 47
-104 49 -684 48 -300 -1 -563 -5 -586 -10z m1402 -1456 c325 -507 517 -795
549 -829 35 -35 69 -58 110 -73 l60 -23 3420 -5 c2969 -4 3435 -6 3530 -19
195 -27 354 -75 539 -162 l120 -57 -355 -5 -354 -5 -53 -30 c-71 -38 -136
-112 -162 -183 -31 -81 -25 -196 14 -275 34 -70 110 -139 182 -166 53 -20 73
-21 739 -21 l684 0 54 -112 c31 -62 60 -132 66 -155 22 -83 -26 -189 -102
-224 -40 -18 -84 -19 -1214 -19 l-1173 0 -6 28 c-74 344 -245 614 -520 820
-147 110 -370 204 -563 236 -137 23 -1887 24 -2028 1 -247 -40 -499 -165 -671
-333 -77 -75 -110 -135 -121 -217 -21 -153 53 -296 188 -362 49 -25 67 -28
151 -28 115 0 154 16 256 106 77 67 199 131 284 149 40 8 306 10 955 8 l900
-3 73 -27 c212 -77 372 -263 416 -480 20 -96 20 -131 1 -194 -18 -61 -62 -116
-123 -152 l-47 -27 -456 -3 -456 -3 -5 111 c-5 98 -9 118 -37 174 -37 75 -92
128 -170 165 l-56 26 -1405 6 c-1221 5 -1429 8 -1585 23 -647 61 -1209 181
-1790 380 -239 82 -280 98 -1182 478 l-743 313 -29 95 c-16 52 -33 107 -36
123 l-7 27 613 0 614 0 61 29 c121 57 196 172 195 300 0 54 -195 1214 -226
1349 l-5 22 203 0 203 0 500 -777z"/>
</g>
</svg>
